<svg width="503" height="103" viewBox="0 0 503 103" fill="none" xmlns="http://www.w3.org/2000/svg">
<path d="M248.687 1V98.6378H281.069V89.5827H259.128V1H248.687Z" fill="black"/>
<path d="M288.206 44.1759V98.6378H298.78V44.1759H288.206Z" fill="black"/>
<path d="M307.371 42.3386V98.6378H317.416V65.042L353.234 101V44.1759H343.982V78.1654L307.371 42.3386Z" fill="black"/>
<path d="M360.371 98.6378H392.885V90.5013H370.548V74.2284H389.713V66.0919H370.548L370.416 52.0499L392.753 51.9186V43.9134H360.371V98.6378Z" fill="black"/>
<path fill-rule="evenodd" clip-rule="evenodd" d="M458.177 44.0446V98.3753H468.222V75.9344H472.848L488.84 98.3753H501L482.893 74.8845C499.771 67.699 498.553 51.1238 482.893 44.0446H458.177ZM476.416 69.2415C487.783 65.6982 488.84 54.2808 476.416 51.9186H468.222V69.2415H476.416Z" fill="black"/>
<path fill-rule="evenodd" clip-rule="evenodd" d="M398.965 98.2441L426.456 42.0761L453.154 98.3753H442.845L437.823 89.3202H413.239L409.142 98.6378H398.965V98.2441ZM425.927 61.105L417.204 80.9213H434.518L425.927 61.105Z" fill="black"/>
<path d="M248.687 1V98.6378H281.069V89.5827H259.128V1H248.687Z" fill="black"/>
<path d="M86.7785 9.79265H65.2347V1H86.7785H97.2199L118.764 1V9.79265H97.5504V98.5066H87.0428L86.7785 9.79265Z" fill="black"/>
<path d="M118.764 44.1759V98.5066H129.205V75.6719H151.41V98.5066H161.851V44.1759H151.41V68.0604H129.205V44.1759H118.764Z" fill="black"/>
<path d="M173.746 98.769H206.128V90.5013H183.791V74.2284H202.956V66.0919H183.791V52.0499H205.996V43.9134H173.746V98.769Z" fill="black"/>
<path d="M1 2.5748H11.3093V101H1V2.5748Z" fill="black"/>
<path d="M20.0325 13.4672H29.5488V101H20.0325V13.4672Z" fill="black"/>
<path d="M37.8755 13.4672H47.6561V101H37.8755V13.4672Z" fill="black"/>
<path d="M65.2347 1V9.79265H86.7785L87.0428 98.5066H97.5504V9.79265H118.764V1M65.2347 1H97.2199M65.2347 1H86.7785M97.2199 1H86.7785M97.2199 1L118.764 1M86.7785 1L118.764 1M248.687 1V98.6378H281.069V89.5827H259.128V1H248.687ZM288.206 44.1759V98.6378H298.78V44.1759H288.206ZM307.371 42.3386V98.6378H317.416V65.042L353.234 101V44.1759H343.982V78.1654L307.371 42.3386ZM360.371 98.6378H392.885V90.5013H370.548V74.2284H389.713V66.0919H370.548L370.416 52.0499L392.753 51.9186V43.9134H360.371V98.6378ZM398.965 98.2441L426.456 42.0761L453.154 98.3753H442.845L437.823 89.3202H413.239L409.142 98.6378H398.965V98.2441ZM417.204 80.9213L425.927 61.105L434.518 80.9213H417.204ZM458.177 44.0446V98.3753H468.222V75.9344H472.848L488.84 98.3753H501L482.893 74.8845C499.771 67.699 498.553 51.1238 482.893 44.0446H458.177ZM476.416 51.9186C488.84 54.2808 487.783 65.6982 476.416 69.2415H468.222V51.9186H476.416ZM118.764 44.1759V98.5066H129.205V75.6719H151.41V98.5066H161.851V44.1759H151.41V68.0604H129.205V44.1759H118.764ZM173.746 98.769H206.128V90.5013H183.791V74.2284H202.956V66.0919H183.791V52.0499H205.996V43.9134H173.746V98.769ZM1 2.5748H11.3093V101H1V2.5748ZM20.0325 13.4672H29.5488V101H20.0325V13.4672ZM37.8755 13.4672H47.6561V101H37.8755V13.4672Z" stroke="#3E3E3E"/>
</svg>
